<svg width="49" height="37" viewBox="0 0 49 37" fill="none" xmlns="http://www.w3.org/2000/svg">
<path d="M0.870547 34.2549L0.916999 7.62749C1.26539 7.11769 1.86926 7.06867 2.27184 7.51965L7.17248 12.951C9.57248 8.69612 15.7893 0.176514 27.046 0.176514C40.4783 0.176514 48.0964 14.8432 48.0964 14.8432L48.8164 15.9902C48.8164 15.9902 40.068 7.50985 29.9725 12.0098C23.3609 14.951 20.0164 20.9216 18.3751 25.3628L23.1209 30.6275C23.5235 31.0785 23.5699 31.8628 23.2293 32.3726L2.49635 36.2451C1.90797 36.402 1.46668 36.6569 1.0641 36.2059C0.661515 35.7549 0.855063 35.0589 0.870547 34.2549Z" fill="#FF9F00"/>
</svg>
