<svg width="22" height="22" viewBox="0 0 22 22" fill="none" xmlns="http://www.w3.org/2000/svg">
<path d="M20.3438 0.84375H1.65625C1.20684 0.84375 0.84375 1.20684 0.84375 1.65625V20.3438C0.84375 20.7932 1.20684 21.1562 1.65625 21.1562H20.3438C20.7932 21.1562 21.1562 20.7932 21.1562 20.3438V1.65625C21.1562 1.20684 20.7932 0.84375 20.3438 0.84375ZM17.9977 6.77246H16.3752C15.1031 6.77246 14.8568 7.37676 14.8568 8.26543V10.223H17.8936L17.4975 13.2877H14.8568V21.1562H11.6906V13.2902H9.04238V10.223H11.6906V7.96328C11.6906 5.34043 13.2928 3.91094 15.6338 3.91094C16.7561 3.91094 17.7184 3.99473 18.0002 4.03281V6.77246H17.9977Z" fill="#F8F8F8"/>
</svg>
