<svg width="26" height="26" viewBox="0 0 26 26" fill="none" xmlns="http://www.w3.org/2000/svg">
<path d="M0 13C0 18.5499 3.47858 23.2884 8.37417 25.1528C8.255 24.1378 8.12825 22.464 8.40125 21.2897C8.63633 20.28 9.919 14.8568 9.919 14.8568C9.919 14.8568 9.53225 14.0822 9.53225 12.935C9.53225 11.1367 10.5744 9.79333 11.8733 9.79333C12.9783 9.79333 13.5113 10.6221 13.5113 11.6155C13.5113 12.7259 12.8039 14.3856 12.4388 15.925C12.1344 17.2131 13.0856 18.2639 14.3553 18.2639C16.6552 18.2639 18.4243 15.8383 18.4243 12.337C18.4243 9.23758 16.1969 7.072 13.0173 7.072C9.33617 7.072 7.17492 9.83342 7.17492 12.688C7.17492 13.8006 7.60283 14.9923 8.138 15.6412C8.18363 15.6902 8.21586 15.7501 8.23161 15.8152C8.24736 15.8803 8.24609 15.9483 8.22792 16.0128C8.12933 16.4223 7.9105 17.3008 7.86825 17.4807C7.81083 17.7168 7.68083 17.7677 7.43492 17.6529C5.81858 16.9011 4.80892 14.5383 4.80892 12.6403C4.80892 8.55725 7.774 4.80892 13.3586 4.80892C17.8479 4.80892 21.3373 8.008 21.3373 12.2828C21.3373 16.7429 18.5261 20.3331 14.6217 20.3331C13.3098 20.3331 12.0781 19.6506 11.6556 18.8457C11.6556 18.8457 11.0067 21.3178 10.8496 21.9223C10.5441 23.0967 9.69692 24.583 9.1715 25.4269C10.3827 25.7996 11.6675 26 13 26C20.1793 26 26 20.1793 26 13C26 5.82075 20.1793 0 13 0C5.82075 0 0 5.82075 0 13Z" fill="#F8F8F8"/>
</svg>
