<svg width="26" height="21" viewBox="0 0 26 21" fill="none" xmlns="http://www.w3.org/2000/svg">
<path d="M25.5984 3.34842C24.659 3.74925 23.6499 4.02009 22.589 4.1425C23.6836 3.51178 24.5026 2.51909 24.893 1.34967C23.8646 1.93791 22.739 2.35196 21.5653 2.57384C20.7759 1.76227 19.7305 1.22436 18.5911 1.0436C17.4518 0.862842 16.2824 1.04936 15.2644 1.57419C14.2464 2.09903 13.4369 2.93281 12.9614 3.9461C12.486 4.95938 12.3712 6.09548 12.635 7.178C10.5512 7.07725 8.5126 6.55568 6.65162 5.64715C4.79064 4.73862 3.14883 3.46343 1.83276 1.90434C1.38276 2.65184 1.12401 3.5185 1.12401 4.4415C1.12351 5.27241 1.336 6.0906 1.74263 6.82346C2.14925 7.55633 2.73744 8.18121 3.45501 8.64267C2.62282 8.61717 1.809 8.40063 1.08126 8.01109V8.07608C1.08118 9.24147 1.4998 10.371 2.26609 11.273C3.03239 12.175 4.09916 12.7939 5.28539 13.0248C4.5134 13.2259 3.70402 13.2556 2.91839 13.1114C3.25307 14.1142 3.90501 14.991 4.78293 15.6193C5.66085 16.2475 6.7208 16.5956 7.81439 16.6149C5.95795 18.0183 3.66526 18.7795 1.30514 18.7762C0.887067 18.7763 0.469349 18.7528 0.0541382 18.7058C2.4498 20.189 5.23852 20.9762 8.08664 20.9732C17.7279 20.9732 22.9985 13.2837 22.9985 6.61467C22.9985 6.398 22.9929 6.17917 22.9828 5.9625C24.008 5.24856 24.8929 4.36447 25.5961 3.35167L25.5984 3.34842V3.34842Z" fill="#F8F8F8"/>
</svg>
