<svg width="26" height="18" viewBox="0 0 26 18" fill="none" xmlns="http://www.w3.org/2000/svg">
<path d="M25.4583 3.04929C25.3111 2.52413 25.0243 2.04867 24.6285 1.67346C24.2215 1.28671 23.7226 1.01006 23.179 0.869625C21.1445 0.333375 12.9935 0.333375 12.9935 0.333375C9.59544 0.294714 6.19821 0.464756 2.821 0.842542C2.27737 0.993356 1.77944 1.27619 1.3715 1.66588C0.970664 2.05154 0.680331 2.52713 0.528664 3.04821C0.164331 5.01093 -0.0126864 7.00383 -2.77144e-06 9.00004C-0.0130028 10.9945 0.163581 12.9867 0.528664 14.9519C0.677081 15.4708 0.966331 15.9442 1.36825 16.3266C1.77016 16.709 2.27066 16.9853 2.821 17.1315C4.88258 17.6667 12.9935 17.6667 12.9935 17.6667C16.3959 17.7054 19.7974 17.5354 23.179 17.1575C23.7226 17.0171 24.2215 16.7405 24.6285 16.3537C25.0293 15.9713 25.3143 15.4957 25.4573 14.9779C25.8311 13.0159 26.0129 11.0222 26 9.02496C26.0281 7.01928 25.8466 5.01615 25.4583 3.04821V3.04929ZM10.4022 12.7094V5.29179L17.1838 9.00113L10.4022 12.7094Z" fill="#F8F8F8"/>
</svg>
